<svg width="12" height="10" viewBox="0 0 12 10" fill="none" xmlns="http://www.w3.org/2000/svg">
<path d="M1.91095 0.125C2.21564 0.125 2.47345 0.382812 2.47345 0.6875V1.8125C2.47345 2.14062 2.21564 2.375 1.91095 2.375H0.78595C0.457825 2.375 0.22345 2.14062 0.22345 1.8125V0.6875C0.22345 0.382812 0.457825 0.125 0.78595 0.125H1.91095ZM11.0984 0.5C11.4969 0.5 11.8484 0.851562 11.8484 1.25C11.8484 1.67188 11.4969 2 11.0984 2H4.34845C3.92657 2 3.59845 1.67188 3.59845 1.25C3.59845 0.851562 3.92657 0.5 4.34845 0.5H11.0984ZM11.0984 4.25C11.4969 4.25 11.8484 4.60156 11.8484 5C11.8484 5.42188 11.4969 5.75 11.0984 5.75H4.34845C3.92657 5.75 3.59845 5.42188 3.59845 5C3.59845 4.60156 3.92657 4.25 4.34845 4.25H11.0984ZM11.0984 8C11.4969 8 11.8484 8.35156 11.8484 8.75C11.8484 9.17188 11.4969 9.5 11.0984 9.5H4.34845C3.92657 9.5 3.59845 9.17188 3.59845 8.75C3.59845 8.35156 3.92657 8 4.34845 8H11.0984ZM0.22345 4.4375C0.22345 4.13281 0.457825 3.875 0.78595 3.875H1.91095C2.21564 3.875 2.47345 4.13281 2.47345 4.4375V5.5625C2.47345 5.89062 2.21564 6.125 1.91095 6.125H0.78595C0.457825 6.125 0.22345 5.89062 0.22345 5.5625V4.4375ZM1.91095 7.625C2.21564 7.625 2.47345 7.88281 2.47345 8.1875V9.3125C2.47345 9.64062 2.21564 9.875 1.91095 9.875H0.78595C0.457825 9.875 0.22345 9.64062 0.22345 9.3125V8.1875C0.22345 7.88281 0.457825 7.625 0.78595 7.625H1.91095Z" fill="#82A0CE"/>
</svg>
